mtllib LOD2-UVFlip.mtl

g FrontUVLOD2
usemtl FrontUVLOD2

v 2.485388 -0.1477656 2.477776
vt 0.203125 0.6019257
vn -5.450639E-17 -1 -1.450017E-08

v -2.496584 -0.1477656 2.477776
vt 0.203125 0.6019257
vn -5.441464E-17 -1 -1.227992E-08

v 2.493802 -0.1477655 -0.7930061
vt 0.203125 0.2269256
vn -7.346992E-17 -1 -1.309096E-08

v -2.504998 -0.1477655 -0.7930061
vt 0.203125 0.2269256
vn -8.295169E-17 -1 -1.238635E-08

v -0.005599201 -0.1477655 -2.385384
vt 0.328125 0.02380058
vn -1.115805E-16 -1 -1.471304E-08

v 2.493802 -0.1477655 -0.7930061
vt 0.4693568 0.5174646
vn 0.994354 0.1061145 -1.92675E-09

v 2.251248 2.125112 -0.6817381
vt 0.5094442 0.5194271
vn 0.994354 0.1061145 -1.92675E-09

v 2.251248 2.125112 0.6386507
vt 0.5094442 0.5427153
vn 0.994354 0.1061145 -1.92675E-09

v 2.493802 -0.1477655 -0.7930061
vt 0.4616793 0.5058579
vn 0.5347251 0.09815226 -0.8393065

v -0.005599201 -0.1477655 -2.385384
vt 0.4909248 0.5058579
vn 0.5706782 0.04781692 -0.8197804

v 2.251248 2.125112 -0.6817381
vt 0.4645174 0.4792631
vn 0.5706782 0.04781692 -0.8197804

v -0.005599201 2.125112 -2.393142
vt 0.4909248 0.4792631
vn 0.6042302 -0.002719601 -0.7968051

v -2.504998 -0.1477655 -0.7930061
vt 0.5201701 0.5058579
vn -0.5347255 0.09815246 -0.8393061

v -2.262443 2.125112 -0.6817381
vt 0.5173319 0.4792631
vn -0.5706787 0.04781703 -0.8197801

v -0.005599201 -0.1477655 -2.385384
vt 0.4909248 0.5058579
vn -0.5706787 0.04781703 -0.8197801

v -0.005599201 2.125112 -2.393142
vt 0.4909248 0.4792631
vn -0.6042308 -0.002719605 -0.7968047

v -2.262443 2.125112 0.63865
vt 0.535085 0.7109869
vn 0 1 -1.063449E-07

v 2.251248 2.125112 0.6386507
vt 0.4408505 0.7109869
vn 0 1 -2.842171E-14

v -2.262443 2.125112 -0.6817381
vt 0.535085 0.738553
vn 0 1 -2.076322E-08

v 2.251248 2.125112 -0.6817381
vt 0.4408505 0.738553
vn 0 1 2.202765E-08

v -0.005599201 2.125112 -2.393142
vt 0.4879677 0.7742829
vn 0 1 -6.228959E-08

v -2.496584 -0.1477656 2.477776
vt 0.5340515 0.7060449
vn -6.643692E-09 0.6290282 0.7773825

v 2.485388 -0.1477656 2.477776
vt 0.4415583 0.7060449
vn -6.124881E-08 0.6290281 0.7773827

v -2.262443 2.125112 0.63865
vt 0.5297046 0.6638474
vn -6.124881E-08 0.6290281 0.7773827

v 2.251248 2.125112 0.6386507
vt 0.4459051 0.6638474
vn -1.158539E-07 0.629028 0.7773826

v 2.493802 -0.1477655 -0.7930061
vt 0.4693568 0.5174646
vn 0.9945195 0.1045206 0.00255853

v 2.251248 2.125112 0.6386507
vt 0.5094442 0.5427153
vn 0.9945195 0.1045206 0.00255853

v 2.485388 -0.1477656 2.477776
vt 0.4693568 0.5751526
vn 0.9945195 0.1045206 0.00255853

v -2.504998 -0.1477655 -0.7930061
vt 0.4693568 0.5174646
vn -0.9943539 0.1061147 -3.441891E-09

v -2.262443 2.125112 0.63865
vt 0.5094442 0.5427153
vn -0.9943539 0.1061147 -3.441891E-09

v -2.262443 2.125112 -0.6817381
vt 0.5094442 0.5194271
vn -0.9943539 0.1061147 -3.441891E-09

v -2.504998 -0.1477655 -0.7930061
vt 0.4693568 0.5174646
vn -0.9945194 0.1045209 0.002558531

v -2.496584 -0.1477656 2.477776
vt 0.4693568 0.5751526
vn -0.9945194 0.1045209 0.002558531

v -2.262443 2.125112 0.63865
vt 0.5094442 0.5427153
vn -0.9945194 0.1045209 0.002558531

# 34 vertice(s).

f 1/1/1 2/2/2 3/3/3
f 2/2/2 4/4/4 3/3/3
f 5/5/5 3/3/3 4/4/4
f 6/6/6 7/7/7 8/8/8
f 9/9/9 10/10/10 11/11/11
f 10/10/10 12/12/12 11/11/11
f 13/13/13 14/14/14 15/15/15
f 15/15/15 14/14/14 16/16/16
f 17/17/17 18/18/18 19/19/19
f 18/18/18 20/20/20 19/19/19
f 19/19/19 20/20/20 21/21/21
f 22/22/22 23/23/23 24/24/24
f 24/24/24 23/23/23 25/25/25
f 26/26/26 27/27/27 28/28/28
f 29/29/29 30/30/30 31/31/31
f 32/32/32 33/33/33 34/34/34
# 48 indices; 16 primitives.

# 1 primitive groups.

# 1 parts.

