mtllib Turret-UVFlip.mtl

g TurretUV
usemtl TurretUV

v 0.5871674 1.795353 1.213749
vt 0.5982733 0.5129554
vn 2.544788E-08 0.7396597 0.6729811

v 0.2572439 1.995103 0.9942083
vt 0.5609693 0.4849113
vn 2.544788E-08 0.7396597 0.6729811

v -0.2572439 1.995103 0.9942083
vt 0.5583089 0.4849113
vn 2.544788E-08 0.7396597 0.6729811

v -0.5871674 1.795353 1.213749
vt 0.5945666 0.5129554
vn 2.544788E-08 0.7396597 0.6729811

v 0.2572439 2.101588 0.5692091
vt 0.5609693 0.4406349
vn 0 1 -6.39078E-08

v 0.2572439 2.101588 -0.2137251
vt 0.5609693 0.3594632
vn 0 1 -6.39078E-08

v -0.2572439 2.101588 -0.2137251
vt 0.5597031 0.3594632
vn 0 1 -6.39078E-08

v -0.2572439 2.101588 0.5692091
vt 0.5597031 0.4406349
vn 0 1 -6.39078E-08

v 0.2572439 2.101588 -0.2137251
vt 0.5609693 0.3594632
vn 5.2672E-09 0.7396589 -0.672982

v 0.5871674 1.901838 -0.4332657
vt 0.5982733 0.336702
vn 5.2672E-09 0.7396589 -0.672982

v -0.5871674 1.901838 -0.4332657
vt 0.5970071 0.336702
vn 5.2672E-09 0.7396589 -0.672982

v -0.2572439 2.101588 -0.2137251
vt 0.5597031 0.3594632
vn 5.2672E-09 0.7396589 -0.672982

v 0.5871674 1.901838 -0.4332657
vt 0.5982733 0.336702
vn 1.33232E-09 -0.9979165 -0.06451824

v 0.5871674 1.901838 0.6342635
vt 0.5982733 0.4473795
vn 1.33232E-09 -0.9979165 -0.06451824

v 0.5871674 1.795353 1.213749
vt 0.5982733 0.5129554
vn 1.33232E-09 -0.9979165 -0.06451824

v -0.5871674 1.795353 1.213749
vt 0.5945666 0.5129554
vn 1.33232E-09 -0.9979165 -0.06451824

v -0.5871674 1.901838 0.6342635
vt 0.5970071 0.4473795
vn 1.33232E-09 -0.9979165 -0.06451824

v -0.5871674 1.901838 -0.4332657
vt 0.5970071 0.336702
vn 1.33232E-09 -0.9979165 -0.06451824

v -0.5871674 1.795353 1.213749
vt 0.5945666 0.5129554
vn -0.4292102 0.8883312 0.1632369

v -0.2572439 1.995103 0.9942083
vt 0.5583089 0.4849113
vn -0.4292102 0.8883312 0.1632369

v -0.5871674 1.901838 0.6342635
vt 0.5970071 0.4473795
vn -0.4292102 0.8883312 0.1632369

v 0.5871674 1.901838 -0.4332657
vt 0.5982733 0.336702
vn 0.5179153 0.8554319 5.297351E-08

v 0.2572439 2.101588 -0.2137251
vt 0.5609693 0.3594632
vn 0.5179153 0.8554319 5.297351E-08

v 0.2572439 2.101588 0.5692091
vt 0.5609693 0.4406349
vn 0.5179153 0.8554319 5.297351E-08

v 0.5871674 1.901838 0.6342635
vt 0.5982733 0.4473795
vn 0.5179153 0.8554319 5.297351E-08

v -0.5871674 1.901838 0.6342635
vt 0.5970071 0.4473795
vn -0.5179154 0.8554319 -5.297351E-08

v -0.2572439 2.101588 0.5692091
vt 0.5597031 0.4406349
vn -0.5179154 0.8554319 -5.297351E-08

v -0.2572439 2.101588 -0.2137251
vt 0.5597031 0.3594632
vn -0.5179154 0.8554319 -5.297351E-08

v -0.5871674 1.901838 -0.4332657
vt 0.5970071 0.336702
vn -0.5179154 0.8554319 -5.297351E-08

v 0.5871674 1.901838 0.6342635
vt 0.5982733 0.4473795
vn 0.4292102 0.8883312 0.1632368

v 0.2572439 1.995103 0.9942083
vt 0.5609693 0.4849113
vn 0.4292102 0.8883312 0.1632368

v 0.5871674 1.795353 1.213749
vt 0.5982733 0.5129554
vn 0.4292102 0.8883312 0.1632368

v 0.2572439 2.101588 0.5692091
vt 0.5609693 0.4406349
vn 0.4747174 0.8537483 0.2139095

v 0.2572439 1.995103 0.9942083
vt 0.5609693 0.4849113
vn 0.4747174 0.8537483 0.2139095

v 0.5871674 1.901838 0.6342635
vt 0.5982733 0.4473795
vn 0.4747174 0.8537483 0.2139095

v 0.2572439 1.995103 0.9942083
vt 0.5609693 0.4849113
vn 2.039563E-09 0.9700161 0.2430405

v 0.2572439 2.101588 0.5692091
vt 0.5609693 0.4406349
vn 2.039563E-09 0.9700161 0.2430405

v -0.2572439 2.101588 0.5692091
vt 0.5597031 0.4406349
vn 2.039563E-09 0.9700161 0.2430405

v -0.2572439 1.995103 0.9942083
vt 0.5583089 0.4849113
vn 2.039563E-09 0.9700161 0.2430405

v -0.5871674 1.901838 0.6342635
vt 0.5970071 0.4473795
vn -0.4747174 0.8537483 0.2139095

v -0.2572439 1.995103 0.9942083
vt 0.5583089 0.4849113
vn -0.4747174 0.8537483 0.2139095

v -0.2572439 2.101588 0.5692091
vt 0.5597031 0.4406349
vn -0.4747174 0.8537483 0.2139095

# 42 vertice(s).

f 1/1/1 2/2/2 3/3/3
f 1/1/1 3/3/3 4/4/4
f 5/5/5 6/6/6 7/7/7
f 5/5/5 7/7/7 8/8/8
f 9/9/9 10/10/10 11/11/11
f 9/9/9 11/11/11 12/12/12
f 13/13/13 14/14/14 15/15/15
f 13/13/13 15/15/15 16/16/16
f 13/13/13 16/16/16 17/17/17
f 13/13/13 17/17/17 18/18/18
f 19/19/19 20/20/20 21/21/21
f 22/22/22 23/23/23 24/24/24
f 22/22/22 24/24/24 25/25/25
f 26/26/26 27/27/27 28/28/28
f 26/26/26 28/28/28 29/29/29
f 30/30/30 31/31/31 32/32/32
f 33/33/33 34/34/34 35/35/35
f 36/36/36 37/37/37 38/38/38
f 36/36/36 38/38/38 39/39/39
f 40/40/40 41/41/41 42/42/42
# 60 indices; 20 primitives.

# 1 primitive groups.

# 1 parts.

