mtllib LOD3-UVFlip.mtl

g FrontUVLOD2
usemtl FrontUVLOD2

v -4.93798 -1.368111 21.87159
vt 0.7602776 0.102853
vn -0.3846769 -0.9214289 0.05470381

v -9.902586 -0.804767 -3.550535
vt 0.6515266 0.535453
vn -0.3863615 -0.9216766 0.0351721

v -4.380892 -3.136474 -3.997206
vt 0.7481178 0.5432665
vn -0.3863615 -0.9216766 0.0351721

v -6.974812 -2.282948 -18.0493
vt 0.7052246 0.7841201
vn -0.3878975 -0.92157 0.01562687

v 4.937985 -1.368111 21.87159
vt 0.8892283 0.1028531
vn 0.384677 -0.9214289 0.05470375

v 4.380894 -3.136474 -3.997206
vt 0.901388 0.5432665
vn 0.3863609 -0.9216766 0.03517985

v 9.902586 -0.804767 -3.550535
vt 0.9979792 0.535453
vn 0.3863609 -0.9216766 0.03517985

v 6.97504 -2.282948 -18.04077
vt 0.9385805 0.7840992
vn 0.3878965 -0.9215702 0.01564243

v 4.937985 -1.368111 21.87159
vt 0.8892283 0.1028531
vn 2.180202E-09 -0.9976717 0.06819976

v -4.93798 -1.368111 21.87159
vt 0.7602776 0.102853
vn 2.318823E-09 -0.9976717 0.06819976

v 4.380894 -3.136474 -3.997206
vt 0.901388 0.5432665
vn 2.318823E-09 -0.9976717 0.06819976

v -4.380892 -3.136474 -3.997206
vt 0.7481178 0.5432665
vn 2.457444E-09 -0.9976717 0.06819975

v 3.71649 3.066504 -4.247638
vt 0.2453092 0.5452915
vn 0.3669992 0.9287658 0.0520165

v 4.937985 -1.368111 21.87159
vt 0.2447719 0.1004973
vn 0.1781204 0.9714663 0.156609

v 9.902586 -0.804767 -3.550535
vt 0.3535228 0.5330971
vn 0.5755103 0.8142854 -0.07567846

v -3.71649 3.066504 -4.247637
vt 0.1152839 0.5452915
vn -0.2762108 0.9575015 0.08305786

v -3.040956 1.218739 -18.0493
vt 0.1263486 0.7774582
vn -0.4988146 0.657048 -0.5652184

v -9.902586 -0.804767 -3.550535
vt 0.007070327 0.5330971
vn -0.5755191 0.8142851 -0.07561477

v -6.974812 -2.282948 -18.0493
vt 0.05828595 0.7867245
vn -0.2688703 0.3026234 -0.9144003

v 3.040958 1.218739 -18.04077
vt 0.2342446 0.7773836
vn 0.3889109 0.5110443 -0.766539

v 6.97504 -2.282948 -18.04077
vt 0.3023111 0.7865752
vn 0.4191524 0.4709103 -0.7762441

v 6.97504 -2.282948 -18.04077
vt 0.6199452 0.1567071
vn 0.4191524 0.4709103 -0.7762441

v -6.974812 -2.282948 -18.0493
vt 0.3744951 0.1576326
vn -0.2688703 0.3026234 -0.9144003

v 3.040958 1.218739 -18.04077
vt 0.5594727 0.2113397
vn 0.3889109 0.5110443 -0.766539

v -3.040956 1.218739 -18.0493
vt 0.4412156 0.2113397
vn -0.4988146 0.657048 -0.5652184

v -4.93798 -1.368111 21.87159
vt 0.1158212 0.1004972
vn -0.2683325 0.9517275 0.1490389

v -3.71649 3.066504 -4.247637
vt 0.1152839 0.5452915
vn -2.319178E-08 0.9911568 -0.1326959

v 3.71649 3.066504 -4.247638
vt 0.2453092 0.5452915
vn 9.315397E-05 0.9911509 -0.1327407

v -3.040956 1.218739 -18.0493
vt 0.1263486 0.7774582
vn 9.315397E-05 0.9911509 -0.1327407

v 3.040958 1.218739 -18.04077
vt 0.2342446 0.7773836
vn 0.0001863311 0.9911448 -0.1327855

v -6.974812 -2.282948 -18.0493
vt 0.7052246 0.7841201
vn 3.709297E-05 -0.9981601 -0.06063524

v 6.97504 -2.282948 -18.04077
vt 0.9385805 0.7840992
vn 1.854643E-05 -0.9981592 -0.06065018

v -4.380892 -3.136474 -3.997206
vt 0.7481178 0.5432665
vn 1.854643E-05 -0.9981592 -0.06065018

v 4.380894 -3.136474 -3.997206
vt 0.901388 0.5432665
vn -1.061323E-10 -0.9981582 -0.06066511

# 34 vertice(s).

f 1/1/1 2/2/2 3/3/3
f 3/3/3 2/2/2 4/4/4
f 5/5/5 6/6/6 7/7/7
f 7/7/7 6/6/6 8/8/8
f 9/9/9 10/10/10 11/11/11
f 10/10/10 12/12/12 11/11/11
f 13/13/13 14/14/14 15/15/15
f 16/16/16 17/17/17 18/18/18
f 18/18/18 17/17/17 19/19/19
f 13/13/13 15/15/15 20/20/20
f 20/20/20 15/15/15 21/21/21
f 22/22/22 23/23/23 24/24/24
f 24/24/24 23/23/23 25/25/25
f 26/26/26 16/16/16 18/18/18
f 26/26/26 14/14/14 16/16/16
f 16/16/16 14/14/14 13/13/13
f 27/27/27 28/28/28 29/29/29
f 29/29/29 28/28/28 30/30/30
f 31/31/31 32/32/32 33/33/33
f 33/33/33 32/32/32 34/34/34
# 60 indices; 20 primitives.

# 1 primitive groups.

# 1 parts.

