mtllib Goblins.mtl

g side_upper
usemtl side_upper

v 57.99565 391.4898 123.1074
vt 0.7456682 1.398075
vn 0.7324154 -0.6806395 0.01725136

v 59.12185 392.6735 121.995
vt 0.7486361 1.394814
vn 0.7324154 -0.6806395 0.01725136

v 59.04845 392.653 124.3008
vt 0.7486362 1.394814
vn 0.7324154 -0.6806395 0.01725136

v 33.43107 392.9364 119.5127
vt 0.74963 1.459699
vn 0.009347357 0.9999141 0.009192077

v 33.23772 392.8824 125.5881
vt 0.7496302 1.459699
vn 0.009347563 0.9999141 0.00918545

v 59.12185 392.6735 121.995
vt 0.7486361 1.394814
vn 0.009347563 0.9999141 0.00918545

v 59.04845 392.653 124.3008
vt 0.7486362 1.394814
vn 0.009347769 0.9999142 0.009178823

v 42.50538 390.7608 121.1276
vt 0.7439982 1.437121
vn 0.04794591 -0.9988228 -0.007359801

v 57.99565 391.4898 123.1074
vt 0.7456682 1.398075
vn 0.04794591 -0.9988228 -0.007359801

v 42.4018 390.7319 124.3814
vt 0.7439982 1.437121
vn 0.04794591 -0.9988228 -0.007359801

v 57.99565 391.4898 123.1074
vt 0.7456682 1.398075
vn 0.08991131 -0.751722 0.6533223

v 59.04845 392.653 124.3008
vt 0.7486362 1.394814
vn 0.08991131 -0.751722 0.6533223

v 42.4018 390.7319 124.3814
vt 0.7439982 1.437121
vn 0.08991131 -0.751722 0.6533223

v 59.12185 392.6735 121.995
vt 0.7486361 1.394814
vn 0.08731776 -0.3327861 -0.9389511

v 42.50538 390.7608 121.1276
vt 0.7439982 1.437121
vn 0.05776041 -0.4284276 -0.9017281

v 33.43107 392.9364 119.5127
vt 0.74963 1.459699
vn 0.05776041 -0.4284276 -0.9017281

v 33.39037 390.7546 120.8374
vt 0.7441089 1.459726
vn 0.02754423 -0.5191823 -0.8542196

v 33.39037 390.7546 120.8374
vt 0.7441089 1.459726
vn 0.0009616896 -0.9999603 -0.00886881

v 42.50538 390.7608 121.1276
vt 0.7439982 1.437121
vn 0.000960177 -0.9999602 -0.008865483

v 33.28681 390.7257 124.0912
vt 0.7441089 1.459726
vn 0.000960177 -0.9999602 -0.008865483

v 42.4018 390.7319 124.3814
vt 0.7439982 1.437121
vn 0.0009586645 -0.9999604 -0.008862156

v 59.12185 392.6735 121.995
vt 0.7486361 1.394814
vn 0.119612 -0.737987 -0.6641296

v 57.99565 391.4898 123.1074
vt 0.7456682 1.398075
vn 0.119612 -0.737987 -0.6641296

v 42.50538 390.7608 121.1276
vt 0.7439982 1.437121
vn 0.119612 -0.737987 -0.6641296

v 59.04845 392.653 124.3008
vt 0.7486362 1.394814
vn 0.04381956 -0.3403377 0.9392817

v 33.23772 392.8824 125.5881
vt 0.7496302 1.459699
vn 0.009116249 -0.4595132 0.8881243

v 42.4018 390.7319 124.3814
vt 0.7439982 1.437121
vn 0.009116249 -0.4595132 0.8881243

v 33.28681 390.7257 124.0912
vt 0.7441089 1.459726
vn -0.02575137 -0.5704062 0.820959

v 36.97026 52.31702 -106.4264
vt 0.7456682 1.398075
vn 0.7320488 -0.6811625 -0.01105516

v 38.04368 53.48969 -107.6009
vt 0.7486361 1.394814
vn 0.7320488 -0.6811625 -0.01105516

v 38.07851 53.48969 -105.294
vt 0.7486362 1.394814
vn 0.7320488 -0.6811625 -0.01105516

v 12.26488 53.75531 -108.8777
vt 0.74963 1.459699
vn 0.01031119 0.9999468 -0.0001554066

v 12.35672 53.75531 -102.7996
vt 0.7496302 1.459699
vn 0.01031118 0.9999468 -0.0001564943

v 38.04368 53.48969 -107.6009
vt 0.7486361 1.394814
vn 0.01031118 0.9999468 -0.0001564943

v 38.07851 53.48969 -105.294
vt 0.7486362 1.394814
vn 0.01031117 0.9999468 -0.000157582

v 21.40377 51.58539 -107.6709
vt 0.7439982 1.437121
vn 0.04700514 -0.9988944 -0.0007097122

v 36.97026 52.31702 -106.4264
vt 0.7456682 1.398075
vn 0.04700514 -0.9988944 -0.0007097122

v 21.45293 51.58539 -104.4157
vt 0.7439982 1.437121
vn 0.04700514 -0.9988944 -0.0007097122

v 36.97026 52.31702 -106.4264
vt 0.7456682 1.398075
vn 0.1200505 -0.745982 0.6550563

v 38.07851 53.48969 -105.294
vt 0.7486362 1.394814
vn 0.1200505 -0.745982 0.6550563

v 21.45293 51.58539 -104.4157
vt 0.7439982 1.437121
vn 0.1200505 -0.745982 0.6550563

v 38.04368 53.48969 -107.6009
vt 0.7486361 1.394814
vn 0.04299277 -0.3411778 -0.9390151

v 21.40377 51.58539 -107.6709
vt 0.7439982 1.437121
vn 0.01516207 -0.4364643 -0.8995939

v 12.26488 53.75531 -108.8777
vt 0.74963 1.459699
vn 0.01516207 -0.4364643 -0.8995939

v 12.28519 51.58539 -107.5331
vt 0.7441089 1.459726
vn -0.0128416 -0.5267715 -0.84991

v 12.28519 51.58539 -107.5331
vt 0.7441089 1.459726
vn 0 -1 -1.575358E-07

v 21.40377 51.58539 -107.6709
vt 0.7439982 1.437121
vn 0 -1 -1.497719E-07

v 12.33437 51.58539 -104.2779
vt 0.7441089 1.459726
vn 0 -1 -1.497719E-07

v 21.45293 51.58539 -104.4157
vt 0.7439982 1.437121
vn 0 -1 -1.42008E-07

v 38.04368 53.48969 -107.6009
vt 0.7486361 1.394814
vn 0.08792552 -0.7439617 -0.6624123

v 36.97026 52.31702 -106.4264
vt 0.7456682 1.398075
vn 0.08792552 -0.7439617 -0.6624123

v 21.40377 51.58539 -107.6709
vt 0.7439982 1.437121
vn 0.08792552 -0.7439617 -0.6624123

v 38.07851 53.48969 -105.294
vt 0.7486362 1.394814
vn 0.08764935 -0.3320546 0.9391791

v 12.35672 53.75531 -102.7996
vt 0.7496302 1.459699
vn 0.05052208 -0.4516376 0.8907699

v 21.45293 51.58539 -104.4157
vt 0.7439982 1.437121
vn 0.05052208 -0.4516376 0.8907699

v 12.33437 51.58539 -104.2779
vt 0.7441089 1.459726
vn 0.01248431 -0.5630811 0.8263074

v 52.74757 -463.5307 40.33574
vt 0.7456682 1.398075
vn 0.7311756 -0.6811625 0.03741492

v 53.89636 -462.358 39.2348
vt 0.7486361 1.394814
vn 0.7311756 -0.6811625 0.03741492

v 53.77845 -462.358 41.53894
vt 0.7486362 1.394814
vn 0.7311756 -0.6811625 0.03741492

v 28.25858 -462.0924 36.25476
vt 0.74963 1.459699
vn 0.01029889 0.9999468 0.0005311898

v 27.94797 -462.0924 42.3256
vt 0.7496302 1.459699
vn 0.01029889 0.9999468 0.00052151

v 53.89636 -462.358 39.2348
vt 0.7486361 1.394814
vn 0.01029889 0.9999468 0.00052151

v 53.77845 -462.358 41.53894
vt 0.7486362 1.394814
vn 0.01029889 0.9999468 0.0005118302

v 37.29757 -464.2623 38.06376
vt 0.7439982 1.437121
vn 0.04694894 -0.9988944 0.002401057

v 52.74757 -463.5307 40.33574
vt 0.7456682 1.398075
vn 0.04694894 -0.9988944 0.002401057

v 37.1312 -464.2623 41.31503
vt 0.7439982 1.437121
vn 0.04694894 -0.9988944 0.002401057

v 52.74757 -463.5307 40.33574
vt 0.7456682 1.398075
vn 0.07643662 -0.7459914 0.6615545

v 53.77845 -462.358 41.53894
vt 0.7486362 1.394814
vn 0.07643662 -0.7459914 0.6615545

v 37.1312 -464.2623 41.31503
vt 0.7439982 1.437121
vn 0.07643662 -0.7459914 0.6615545

v 53.89636 -462.358 39.2348
vt 0.7486361 1.394814
vn 0.1050417 -0.3411716 -0.9341137

v 37.29757 -464.2623 38.06376
vt 0.7439982 1.437121
vn 0.07466453 -0.4364549 -0.8966228

v 28.25858 -462.0924 36.25476
vt 0.74963 1.459699
vn 0.07466453 -0.4364549 -0.8966228

v 28.18986 -464.2623 37.59774
vt 0.7441089 1.459726
vn 0.04343567 -0.5267594 -0.8489039

v 28.18986 -464.2623 37.59774
vt 0.7441089 1.459726
vn 0 -1 1.237902E-05

v 37.29757 -464.2623 38.06376
vt 0.7439982 1.437121
vn 0 -1 1.021075E-05

v 28.0235 -464.2623 40.84902
vt 0.7441089 1.459726
vn 0 -1 1.021075E-05

v 37.1312 -464.2623 41.31503
vt 0.7439982 1.437121
vn 0 -1 8.04248E-06

v 53.89636 -462.358 39.2348
vt 0.7486361 1.394814
vn 0.1315718 -0.7439629 -0.6551397

v 52.74757 -463.5307 40.33574
vt 0.7456682 1.398075
vn 0.1315718 -0.7439629 -0.6551397

v 37.29757 -464.2623 38.06376
vt 0.7439982 1.437121
vn 0.1315718 -0.7439629 -0.6551397

v 53.77845 -462.358 41.53894
vt 0.7486362 1.394814
vn 0.02530124 -0.332047 0.9429235

v 27.94797 -462.0924 42.3256
vt 0.7496302 1.459699
vn -0.008540627 -0.4516324 0.8921632

v 37.1312 -464.2623 41.31503
vt 0.7439982 1.437121
vn -0.008540627 -0.4516324 0.8921632

v 28.0235 -464.2623 40.84902
vt 0.7441089 1.459726
vn -0.04222857 -0.5630783 0.8253239

# 84 vertice(s).

f 1/1/1 2/2/2 3/3/3
f 4/4/4 5/5/5 6/6/6
f 6/6/6 5/5/5 7/7/7
f 8/8/8 9/9/9 10/10/10
f 11/11/11 12/12/12 13/13/13
f 14/14/14 15/15/15 16/16/16
f 17/17/17 16/16/16 15/15/15
f 18/18/18 19/19/19 20/20/20
f 19/19/19 21/21/21 20/20/20
f 22/22/22 23/23/23 24/24/24
f 25/25/25 26/26/26 27/27/27
f 26/26/26 28/28/28 27/27/27
f 29/29/29 30/30/30 31/31/31
f 32/32/32 33/33/33 34/34/34
f 34/34/34 33/33/33 35/35/35
f 36/36/36 37/37/37 38/38/38
f 39/39/39 40/40/40 41/41/41
f 42/42/42 43/43/43 44/44/44
f 45/45/45 44/44/44 43/43/43
f 46/46/46 47/47/47 48/48/48
f 47/47/47 49/49/49 48/48/48
f 50/50/50 51/51/51 52/52/52
f 53/53/53 54/54/54 55/55/55
f 54/54/54 56/56/56 55/55/55
f 57/57/57 58/58/58 59/59/59
f 60/60/60 61/61/61 62/62/62
f 62/62/62 61/61/61 63/63/63
f 64/64/64 65/65/65 66/66/66
f 67/67/67 68/68/68 69/69/69
f 70/70/70 71/71/71 72/72/72
f 73/73/73 72/72/72 71/71/71
f 74/74/74 75/75/75 76/76/76
f 75/75/75 77/77/77 76/76/76
f 78/78/78 79/79/79 80/80/80
f 81/81/81 82/82/82 83/83/83
f 82/82/82 84/84/84 83/83/83
# 108 indices; 36 primitives.

# 1 primitive groups.

g side_lower
usemtl side_lower

v 23.95507 -45.27519 168.9554
vt 0.5750473 1.665847
vn 0.474041 0.8438799 0.2513003

v 31.67467 -48.07634 163.7999
vt 0.583475 1.667578
vn 0.4822912 0.8390957 0.2516221

v 33.80738 -45.29684 150.4432
vt 0.5966588 1.66586
vn 0.4822912 0.8390957 0.2516221

v 33.84512 -48.07674 159.5753
vt 0.5883771 1.667579
vn 0.4904975 0.834235 0.251921

v 31.63841 -51.0132 163.7816
vt 0.583488 1.669418
vn 0.8893894 -0.01382814 0.4569415

v 33.80888 -51.01364 159.557
vt 0.5883901 1.669419
vn 0.8893902 -0.01382425 0.45694

v 31.67467 -48.07634 163.7999
vt 0.583475 1.667578
vn 0.8893902 -0.01382425 0.45694

v 33.84512 -48.07674 159.5753
vt 0.5883771 1.667579
vn 0.8893911 -0.01382036 0.4569384

v 23.87406 -53.67184 168.9052
vt 0.5750932 1.671108
vn 0.4536271 -0.8575848 0.2424269

v 33.72639 -53.6935 150.393
vt 0.5967314 1.671121
vn 0.4635434 -0.852136 0.2428822

v 31.63841 -51.0132 163.7816
vt 0.583488 1.669418
vn 0.4635434 -0.852136 0.2428822

v 33.80888 -51.01364 159.557
vt 0.5883901 1.669419
vn 0.4734002 -0.8465779 0.2433064

v 33.80738 -45.29684 150.4432
vt 0.5966588 1.66586
vn 0.999929 -0.009603374 -0.007055092

v 33.84512 -48.07674 159.5753
vt 0.5883771 1.667579
vn 0.9999206 -0.01095283 -0.006229534

v 33.72639 -53.6935 150.393
vt 0.5967314 1.671121
vn 0.9999206 -0.01095283 -0.006229534

v 33.80888 -51.01364 159.557
vt 0.5883901 1.669419
vn 0.9999098 -0.01230226 -0.005403961

v 23.95507 -45.27519 168.9554
vt 0.5750473 1.665847
vn 0.552758 -0.01031022 0.8332781

v 23.87406 -53.67184 168.9052
vt 0.5750932 1.671108
vn 0.5531816 -0.01116629 0.8329858

v 31.67467 -48.07634 163.7999
vt 0.583475 1.667578
vn 0.5531816 -0.01116629 0.8329858

v 31.63841 -51.0132 163.7816
vt 0.583488 1.669418
vn 0.5536048 -0.01202236 0.8326928

# 20 vertice(s).

f 85/85/85 86/86/86 87/87/87
f 86/86/86 88/88/88 87/87/87
f 89/89/89 90/90/90 91/91/91
f 91/91/91 90/90/90 92/92/92
f 93/93/93 94/94/94 95/95/95
f 95/95/95 94/94/94 96/96/96
f 97/97/97 98/98/98 99/99/99
f 98/98/98 100/100/100 99/99/99
f 101/101/101 102/102/102 103/103/103
f 102/102/102 104/104/104 103/103/103
# 30 indices; 10 primitives.

# 1 primitive groups.

# 2 parts.

