mtllib LOD1.mtl

g hw2Shader1
usemtl hw2Shader1

v -0.3453692 0.1250317 -6.277782
vt 0.884621 0.6689895
vn 0.001391271 -0.9999901 0.004231634

v 0.1918721 0.1258465 -6.280238
vt 0.9066443 0.6690441
vn 0.001391271 -0.9999901 0.004231634

v 0.4069809 0.1208958 -1.092072
vt 0.9122425 0.3288651
vn 0.001391271 -0.9999901 0.004231634

v 0.3664123 0.1465993 -0.1367175
vt 0.912455 0.2657372
vn 0.001391271 -0.9999901 0.004231634

v -0.4875346 0.1465992 -0.1367175
vt 0.8727132 0.2653234
vn 0.001391271 -0.9999901 0.004231634

v -0.5130006 0.1195007 -1.087866
vt 0.8727136 0.3271068
vn 0.001391271 -0.9999901 0.004231634

v -0.07525543 0.5285109 -5.819006
vt 0.05589008 0.4394398
vn -0.004153178 0.7521163 -0.6590174

v 0.1918721 0.1258465 -6.280238
vt 0.1408731 0.459402
vn -0.004153178 0.7521163 -0.6590174

v -0.3453692 0.1250317 -6.277782
vt 0.1408731 0.419478
vn -0.004153178 0.7521163 -0.6590174

v -0.3453692 0.1250317 -6.277782
vt 0.9915454 0.6751385
vn -0.7838114 0.6207125 -0.01886055

v -0.5130006 0.1195007 -1.087866
vt 0.995417 0.3304475
vn -0.7838114 0.6207125 -0.01886055

v -0.05383066 0.6507078 -1.09328
vt 0.940502 0.3313751
vn -0.7838114 0.6207125 -0.01886055

v -0.07525543 0.5285109 -5.819006
vt 0.9532614 0.6450074
vn -0.7838114 0.6207125 -0.01886055

v -0.07525543 0.5285109 -5.819006
vt 0.9556715 0.6451336
vn 0.7817196 0.623087 -0.02601982

v -0.05383066 0.6507078 -1.09328
vt 0.9394014 0.3316181
vn 0.7817196 0.623087 -0.02601982

v 0.4069809 0.1208958 -1.092072
vt 0.9943037 0.3302483
vn 0.7817196 0.623087 -0.02601982

v 0.1918721 0.1258465 -6.280238
vt 0.9942911 0.674955
vn 0.7817196 0.623087 -0.02601982

v -0.5130006 0.1195007 -1.087866
vt 0.995417 0.3304475
vn -0.7565318 0.6539549 0.001624006

v -0.4875346 0.1465992 -0.1367175
vt 0.9904692 0.2670856
vn -0.7565318 0.6539549 0.001624006

v -0.05383066 0.6507078 -1.09328
vt 0.940502 0.3313751
vn -0.7565318 0.6539549 0.001624006

v -0.4875346 0.1465992 -0.1367175
vt 0.01421483 0.3655431
vn 1.676381E-08 0.8846686 0.4662203

v 0.3664123 0.1465993 -0.1367175
vt 0.01419861 0.4272368
vn 1.676381E-08 0.8846686 0.4662203

v -0.05383066 0.6507078 -1.09328
vt 0.1506721 0.3964154
vn 1.676381E-08 0.8846686 0.4662203

v -0.05383066 0.6507078 -1.09328
vt 0.9394014 0.3316181
vn 0.7544369 0.6562151 0.01438155

v 0.3664123 0.1465993 -0.1367175
vt 0.9886471 0.2669291
vn 0.7544369 0.6562151 0.01438155

v 0.4069809 0.1208958 -1.092072
vt 0.9943037 0.3302483
vn 0.7544369 0.6562151 0.01438155

# 26 vertice(s).

f 1/1/1 2/2/2 3/3/3
f 1/1/1 3/3/3 4/4/4
f 1/1/1 4/4/4 5/5/5
f 1/1/1 5/5/5 6/6/6
f 7/7/7 8/8/8 9/9/9
f 10/10/10 11/11/11 12/12/12
f 10/10/10 12/12/12 13/13/13
f 14/14/14 15/15/15 16/16/16
f 14/14/14 16/16/16 17/17/17
f 18/18/18 19/19/19 20/20/20
f 21/21/21 22/22/22 23/23/23
f 24/24/24 25/25/25 26/26/26
# 36 indices; 12 primitives.

# 1 primitive groups.

# 1 parts.

