mtllib LOD1-UVFlip.mtl

g hw2Shader1
usemtl hw2Shader1

v -0.3453692 0.1250317 -6.277782
vt 0.884621 0.3310105
vn 0.001391271 -0.9999901 0.004231634

v 0.1918721 0.1258465 -6.280238
vt 0.9066443 0.3309559
vn 0.001391271 -0.9999901 0.004231634

v 0.4069809 0.1208958 -1.092072
vt 0.9122425 0.6711349
vn 0.001391271 -0.9999901 0.004231634

v 0.3664123 0.1465993 -0.1367175
vt 0.912455 0.7342628
vn 0.001391271 -0.9999901 0.004231634

v -0.4875346 0.1465992 -0.1367175
vt 0.8727132 0.7346766
vn 0.001391271 -0.9999901 0.004231634

v -0.5130006 0.1195007 -1.087866
vt 0.8727136 0.6728932
vn 0.001391271 -0.9999901 0.004231634

v -0.07525543 0.5285109 -5.819006
vt 0.05589008 0.5605602
vn -0.004153178 0.7521163 -0.6590174

v 0.1918721 0.1258465 -6.280238
vt 0.1408731 0.540598
vn -0.004153178 0.7521163 -0.6590174

v -0.3453692 0.1250317 -6.277782
vt 0.1408731 0.580522
vn -0.004153178 0.7521163 -0.6590174

v -0.3453692 0.1250317 -6.277782
vt 0.9915454 0.3248615
vn -0.7838114 0.6207125 -0.01886055

v -0.5130006 0.1195007 -1.087866
vt 0.995417 0.6695525
vn -0.7838114 0.6207125 -0.01886055

v -0.05383066 0.6507078 -1.09328
vt 0.940502 0.6686249
vn -0.7838114 0.6207125 -0.01886055

v -0.07525543 0.5285109 -5.819006
vt 0.9532614 0.3549927
vn -0.7838114 0.6207125 -0.01886055

v -0.07525543 0.5285109 -5.819006
vt 0.9556715 0.3548664
vn 0.7817196 0.623087 -0.02601982

v -0.05383066 0.6507078 -1.09328
vt 0.9394014 0.6683819
vn 0.7817196 0.623087 -0.02601982

v 0.4069809 0.1208958 -1.092072
vt 0.9943037 0.6697517
vn 0.7817196 0.623087 -0.02601982

v 0.1918721 0.1258465 -6.280238
vt 0.9942911 0.325045
vn 0.7817196 0.623087 -0.02601982

v -0.5130006 0.1195007 -1.087866
vt 0.995417 0.6695525
vn -0.7565318 0.6539549 0.001624006

v -0.4875346 0.1465992 -0.1367175
vt 0.9904692 0.7329144
vn -0.7565318 0.6539549 0.001624006

v -0.05383066 0.6507078 -1.09328
vt 0.940502 0.6686249
vn -0.7565318 0.6539549 0.001624006

v -0.4875346 0.1465992 -0.1367175
vt 0.01421483 0.6344569
vn 1.676381E-08 0.8846686 0.4662203

v 0.3664123 0.1465993 -0.1367175
vt 0.01419861 0.5727632
vn 1.676381E-08 0.8846686 0.4662203

v -0.05383066 0.6507078 -1.09328
vt 0.1506721 0.6035846
vn 1.676381E-08 0.8846686 0.4662203

v -0.05383066 0.6507078 -1.09328
vt 0.9394014 0.6683819
vn 0.7544369 0.6562151 0.01438155

v 0.3664123 0.1465993 -0.1367175
vt 0.9886471 0.7330709
vn 0.7544369 0.6562151 0.01438155

v 0.4069809 0.1208958 -1.092072
vt 0.9943037 0.6697517
vn 0.7544369 0.6562151 0.01438155

# 26 vertice(s).

f 1/1/1 2/2/2 3/3/3
f 1/1/1 3/3/3 4/4/4
f 1/1/1 4/4/4 5/5/5
f 1/1/1 5/5/5 6/6/6
f 7/7/7 8/8/8 9/9/9
f 10/10/10 11/11/11 12/12/12
f 10/10/10 12/12/12 13/13/13
f 14/14/14 15/15/15 16/16/16
f 14/14/14 16/16/16 17/17/17
f 18/18/18 19/19/19 20/20/20
f 21/21/21 22/22/22 23/23/23
f 24/24/24 25/25/25 26/26/26
# 36 indices; 12 primitives.

# 1 primitive groups.

# 1 parts.

