mtllib LOD2.mtl

g hw2Shader2
usemtl hw2Shader2

v -0.07400081 0.1254392 -6.279009
vt 0.6065216 0.3482124
vn 3.352761E-08 -0.999994 0.00344497

v 0.3691564 0.1465993 -0.1367174
vt 0.6313056 0.004703104
vn 3.352761E-08 -0.999994 0.00344497

v -0.4847903 0.1465993 -0.1367174
vt 0.5835486 0.004703104
vn 3.352761E-08 -0.999994 0.00344497

v -0.05108592 0.6507078 -1.09328
vt 0.6702288 0.2975702
vn -0.8069302 0.5879868 -0.05599218

v -0.07400081 0.1254392 -6.279009
vt 0.6689471 0.007557034
vn -0.8069302 0.5879868 -0.05599218

v -0.4847903 0.1465993 -0.1367174
vt 0.6459737 0.3510664
vn -0.8069302 0.5879868 -0.05599218

v -0.4847903 0.1465993 -0.1367174
vt 0.6459737 0.3510664
vn -2.04891E-08 0.8846687 0.4662202

v 0.3691564 0.1465993 -0.1367174
vt 0.6937308 0.3510664
vn -2.04891E-08 0.8846687 0.4662202

v -0.05108592 0.6507078 -1.09328
vt 0.6702288 0.2975702
vn -2.04891E-08 0.8846687 0.4662202

v -0.05108592 0.6507078 -1.09328
vt 0.6702288 0.2975702
vn 0.8206919 0.5680873 -0.06116875

v 0.3691564 0.1465993 -0.1367174
vt 0.6937308 0.3510664
vn 0.8206919 0.5680873 -0.06116875

v -0.07400081 0.1254392 -6.279009
vt 0.6689471 0.007557034
vn 0.8206919 0.5680873 -0.06116875

# 12 vertice(s).

f 1/1/1 2/2/2 3/3/3
f 4/4/4 5/5/5 6/6/6
f 7/7/7 8/8/8 9/9/9
f 10/10/10 11/11/11 12/12/12
# 12 indices; 4 primitives.

# 1 primitive groups.

# 1 parts.

