mtllib LOD2-UVFlip.mtl

g hw2Shader2
usemtl hw2Shader2

v 2.09771 1.205959 -1.306803
vt 0.8121563 0.5347468
vn 0.8660253 0.5000001 2.886343E-09

v 0.008926889 2.411917 -1.306804
vt 0.934003 0.5347466
vn -1.545995E-07 1 2.227021E-09

v 0.008926889 2.411917 7.914419
vt 0.9340028 -0.004922628
vn -1.545995E-07 1 2.227021E-09

v 2.09771 1.205959 7.914419
vt 0.8121566 -0.004922628
vn 0.8660253 0.5000001 2.886343E-09

v 0.008926889 2.411917 -1.306804
vt 0.6890436 0.5347466
vn -1.545995E-07 1 2.227021E-09

v -2.079854 1.205959 -1.306803
vt 0.8108903 0.5347468
vn -0.8660254 0.5 -6.593218E-10

v -2.079854 1.205959 7.914419
vt 0.8108901 -0.004922628
vn -0.8660254 0.5 -6.593218E-10

v 0.008926889 2.411917 7.914419
vt 0.6890439 -0.004922628
vn -1.545995E-07 1 2.227021E-09

v -2.079854 -1.205959 -1.306804
vt 0.9338499 0.5347468
vn -0.8660254 -0.4999999 -6.593217E-10

v -2.079854 -1.205959 7.914419
vt 0.9340029 -0.004922628
vn -0.8660254 -0.4999999 -6.593217E-10

v -2.079854 -1.205959 -1.306804
vt 0.6890178 0.5373393
vn -0.8660254 -0.4999999 -6.593217E-10

v 0.008926889 -2.411917 -1.306803
vt 0.8112631 0.5373393
vn -2.412125E-07 -1 1.677531E-09

v 0.008926889 -2.411917 7.914419
vt 0.8112631 -0.002329946
vn -2.412125E-07 -1 1.677531E-09

v -2.079854 -1.205959 7.914419
vt 0.6890178 -0.002329946
vn -0.8660254 -0.4999999 -6.593217E-10

v 2.09771 -1.205959 -1.306804
vt 0.9335084 0.5373393
vn 0.8660253 -0.5000001 2.336853E-09

v 2.09771 -1.205959 7.914419
vt 0.9335084 -0.002329946
vn 0.8660253 -0.5000001 2.336853E-09

v 2.09771 -1.205959 -1.306804
vt 0.6891967 0.5347468
vn 0.8660253 -0.5000001 2.336853E-09

v 2.09771 -1.205959 7.914419
vt 0.6890437 -0.004922628
vn 0.8660253 -0.5000001 2.336853E-09

v 2.09771 -1.205959 7.914419
vt 0.3168603 0.7797983
vn -4.377216E-08 0 1

v 2.09771 1.205959 7.914419
vt 0.3168603 0.9354462
vn -4.377216E-08 0 1

v 0.008926889 2.411917 7.914419
vt 0.1820651 1.01327
vn -4.377216E-08 0 1

v -2.079854 1.205959 7.914419
vt 0.04726991 0.9354462
vn -4.377216E-08 0 1

v -2.079854 -1.205959 7.914419
vt 0.04726991 0.7797983
vn -4.377216E-08 0 1

v 0.008926889 -2.411917 7.914419
vt 0.1820651 0.7019743
vn -4.377216E-08 0 1

v 2.09771 1.205959 -1.306803
vt 0.8121563 0.5347468
vn 0.8227092 0.4749914 -0.3123022

v 2.09771 -1.205959 -1.306804
vt 0.6891967 0.5347468
vn 0.9617807 -2.327095E-08 -0.2738209

v 1.255665 -0.7198054 -4.26444
vt 0.7384253 0.7097828
vn 0.9617807 -2.327095E-08 -0.2738209

v 1.255665 0.7198052 -4.26444
vt 0.811995 0.7097828
vn 0.8227092 0.4749914 -0.3123022

v 2.09771 -1.205959 -1.306804
vt 0.9335084 0.5373393
vn 0.4808904 -0.8329267 -0.2738203

v 0.008926889 -2.411917 -1.306803
vt 0.8112631 0.5373393
vn -1.871958E-07 -0.9499829 -0.3123018

v 0.008926889 -1.439611 -4.26444
vt 0.8112631 0.7104341
vn -1.871958E-07 -0.9499829 -0.3123018

v 1.255665 -0.7198054 -4.26444
vt 0.884228 0.7104341
vn 0.4808904 -0.8329267 -0.2738203

v -2.079854 -1.205959 -1.306804
vt 0.6890178 0.5373393
vn -0.4808907 -0.8329266 -0.2738201

v -1.237812 -0.7198052 -4.26444
vt 0.7382979 0.7104341
vn -0.4808907 -0.8329266 -0.2738201

v -2.079854 -1.205959 -1.306804
vt 0.9338499 0.5347468
vn -0.9617808 4.346898E-08 -0.2738203

v -2.079854 1.205959 -1.306803
vt 0.8108903 0.5347468
vn -0.8227094 0.4749915 -0.3123018

v -1.237812 0.7198055 -4.26444
vt 0.8110517 0.7097828
vn -0.8227094 0.4749915 -0.3123018

v -1.237812 -0.7198052 -4.26444
vt 0.8846214 0.7097828
vn -0.9617808 4.346898E-08 -0.2738203

v 0.008926889 2.411917 -1.306804
vt 0.6890436 0.5347466
vn -0.4808906 0.8329266 -0.2738201

v 0.008926889 1.439611 -4.26444
vt 0.738153 0.7094007
vn -0.4808906 0.8329266 -0.2738201

v 0.008926889 2.411917 -1.306804
vt 0.934003 0.5347466
vn 0.4808905 0.8329267 -0.2738203

v 0.008926889 1.439611 -4.26444
vt 0.8848936 0.7094007
vn 0.4808905 0.8329267 -0.2738203

v 0.008926889 1.439611 -4.26444
vt 0.1796424 0.6373194
vn 8.381903E-09 0 -1

v 1.255665 0.7198052 -4.26444
vt 0.2515585 0.5957987
vn 8.381903E-09 0 -1

v 1.255665 -0.7198054 -4.26444
vt 0.2515585 0.5127569
vn 8.381903E-09 0 -1

v 0.008926889 -1.439611 -4.26444
vt 0.1796424 0.4712361
vn 8.381903E-09 0 -1

v -1.237812 -0.7198052 -4.26444
vt 0.1077263 0.5127569
vn 8.381903E-09 0 -1

v -1.237812 0.7198055 -4.26444
vt 0.1077263 0.5957987
vn 8.381903E-09 0 -1

v 1.627179 -0.9922724 -9.172385
vt 0.7242346 0.9950781
vn 0.8660256 -0.4999998 -3.588088E-08

v 0.008926889 1.810619 -9.172385
vt 0.8882728 0.9950782
vn 0 1 1.538292E-08

v 0.008926889 1.810619 -4.144734
vt 0.8882728 0.7008358
vn 0 1 1.538292E-08

v 1.627179 -0.9922724 -4.144734
vt 0.7242346 0.7008359
vn 0.8660256 -0.4999998 -3.588088E-08

v 0.008926889 1.810619 -9.172385
vt 0.7242346 0.9950782
vn 0 1 1.538292E-08

v -1.609325 -0.9922724 -9.172385
vt 0.8882728 0.9950781
vn -0.8660255 -0.4999998 -2.106165E-08

v -1.609325 -0.9922727 -4.144734
vt 0.8882729 0.7008359
vn -0.8660255 -0.4999998 -2.106165E-08

v 0.008926889 1.810619 -4.144734
vt 0.7242345 0.7008358
vn 0 1 1.538292E-08

v -1.609325 -0.9922724 -9.172385
vt 0.7165554 0.9976701
vn -0.8660255 -0.4999998 -2.106165E-08

v 1.627179 -0.9922724 -9.172385
vt 0.9059707 0.9976701
vn 0.8660256 -0.4999998 -3.588088E-08

v 1.627179 -0.9922724 -4.144734
vt 0.9059707 0.7034284
vn 0.8660256 -0.4999998 -3.588088E-08

v -1.609325 -0.9922727 -4.144734
vt 0.7165554 0.7034284
vn -0.8660255 -0.4999998 -2.106165E-08

v 1.627179 -0.9922724 -9.172385
vt 0.2823896 0.3893706
vn 1.741573E-07 0 -1

v -1.609325 -0.9922724 -9.172385
vt 0.07267438 0.3893706
vn 1.741573E-07 0 -1

v 0.008926889 1.810619 -9.172385
vt 0.177532 0.207752
vn 1.741573E-07 0 -1

v 0.008926889 1.810619 -4.144734
vt 0.1790044 0.01473714
vn -1.527369E-07 0 1

v -1.609325 -0.9922727 -4.144734
vt 0.1001148 0.1513778
vn -1.527369E-07 0 1

v 1.627179 -0.9922724 -4.144734
vt 0.2578939 0.1513778
vn -1.527369E-07 0 1

# 66 vertice(s).

f 1/1/1 2/2/2 3/3/3
f 1/1/1 3/3/3 4/4/4
f 5/5/5 6/6/6 7/7/7
f 5/5/5 7/7/7 8/8/8
f 6/6/6 9/9/9 10/10/10
f 6/6/6 10/10/10 7/7/7
f 11/11/11 12/12/12 13/13/13
f 11/11/11 13/13/13 14/14/14
f 12/12/12 15/15/15 16/16/16
f 12/12/12 16/16/16 13/13/13
f 17/17/17 1/1/1 4/4/4
f 17/17/17 4/4/4 18/18/18
f 19/19/19 20/20/20 21/21/21
f 19/19/19 21/21/21 22/22/22
f 19/19/19 22/22/22 23/23/23
f 19/19/19 23/23/23 24/24/24
f 25/25/25 26/26/26 27/27/27
f 25/25/25 27/27/27 28/28/28
f 29/29/29 30/30/30 31/31/31
f 29/29/29 31/31/31 32/32/32
f 30/30/30 33/33/33 34/34/34
f 30/30/30 34/34/34 31/31/31
f 35/35/35 36/36/36 37/37/37
f 35/35/35 37/37/37 38/38/38
f 36/36/36 39/39/39 40/40/40
f 36/36/36 40/40/40 37/37/37
f 41/41/41 25/25/25 28/28/28
f 41/41/41 28/28/28 42/42/42
f 43/43/43 44/44/44 45/45/45
f 43/43/43 45/45/45 46/46/46
f 43/43/43 46/46/46 47/47/47
f 43/43/43 47/47/47 48/48/48
f 49/49/49 50/50/50 51/51/51
f 49/49/49 51/51/51 52/52/52
f 53/53/53 54/54/54 55/55/55
f 53/53/53 55/55/55 56/56/56
f 57/57/57 58/58/58 59/59/59
f 57/57/57 59/59/59 60/60/60
f 61/61/61 62/62/62 63/63/63
f 64/64/64 65/65/65 66/66/66
# 120 indices; 40 primitives.

# 1 primitive groups.

# 1 parts.

