mtllib LOD3.mtl

g Hgn_MinelayerCorv_LOD2
usemtl Hgn_MinelayerCorv_LOD2

v -7.734489 -1.032527 -5.543018
vt 0.4817598 0.3835362
vn -0.366628 -0.9303665 -0.001442714

v -3.126381 -2.815536 -26.76041
vt 0.5514972 0.06244105
vn -0.366628 -0.9303665 -0.001442714

v -3.28022 -2.815536 -5.546765
vt 0.5491689 0.3834794
vn -0.3716249 -0.9283791 -0.002694982

v -7.734489 -1.032527 -5.543018
vt 0.6382614 0.9472757
vn -0.02759418 -0.07103016 0.9970924

v -3.28022 -2.815536 -5.546765
vt 0.7070677 0.9748182
vn -0.02759418 -0.07103016 0.9970924

v -10.06297 1.657112 -5.415855
vt 0.6022929 0.905728
vn -0.02759418 -0.07103016 0.9970924

v -7.728859 -1.030378 -26.76041
vt 0.4818452 0.06244105
vn -0.3616199 -0.9323255 -0.0001904028

v -4.559311 0.5843658 23.72975
vt 0.1536497 0.8288179
vn -0.9313578 0.3121988 0.1873621

v -4.263962 2.936326 21.27886
vt 0.1581194 0.7917272
vn -0.782863 0.6060013 0.1410249

v -10.06297 1.657112 -5.415855
vt 0.07035971 0.3877407
vn -0.7352744 0.6768134 0.03598782

v -2.323921 7.049068 -8.585987
vt 0.1874789 0.3397653
vn -0.6759301 0.7363973 -0.02893967

v -7.728859 -1.030378 -26.76041
vt 0.1056829 0.06472111
vn -0.7313444 0.676888 -0.08341441

v -2.324562 7.05109 -25.40387
vt 0.1874694 0.08525056
vn -0.8312665 0.555874 9.850309E-05

v 2.16011 -0.2383884 14.31834
vt 0.6315007 0.6841095
vn 0.8410293 -0.4603544 0.2841541

v 1.689865 -2.621444 11.8494
vt 0.6243842 0.6467457
vn 0.7256887 -0.6644348 0.1786121

v 9.83419 1.657112 -5.324261
vt 0.7476369 0.3868468
vn 0.7256887 -0.6644348 0.1786121

v 3.29998 -2.815536 -5.543018
vt 0.6487509 0.3835362
vn 0.5623864 -0.8246018 0.06126551

v -4.559311 0.5843658 23.72975
vt 0.6873093 0.922299
vn 9.868673E-08 0.7215185 0.6923952

v 4.545601 0.5843658 23.72975
vt 0.8279554 0.922299
vn -3.423484E-09 0.7215185 0.6923952

v -4.263962 2.936326 21.27886
vt 0.6918716 0.8859676
vn -3.423484E-09 0.7215185 0.6923952

v 4.250229 2.936326 21.27886
vt 0.8233927 0.8859676
vn -1.055337E-07 0.7215185 0.6923952

v 3.12812 -2.815536 -26.76041
vt 0.942652 0.07363933
vn 0.9823541 0.1028591 -0.1562062

v 2.28537 0.1745966 -30.09138
vt 0.8993722 0.02542621
vn 0.995361 0.05164703 -0.08117273

v 2.310944 7.049021 -25.40386
vt 0.79987 0.09327459
vn 0.8624212 0.4435947 -0.2438308

v 2.28537 5.00982 -30.09138
vt 0.8293859 0.02542621
vn 0.4471183 0.8193309 -0.3588622

v -2.299011 5.01197 -30.09138
vt 0.3424877 0.8605673
vn -2.050924E-08 0 -1

v 2.28537 5.00982 -30.09138
vt 0.4162311 0.860602
vn -1.464534E-07 0 -1

v -2.299011 0.1745966 -30.09138
vt 0.3424877 0.9383802
vn -1.464534E-07 0 -1

v 2.28537 0.1745966 -30.09138
vt 0.4162311 0.9383802
vn -2.723975E-07 0 -1

v 2.310944 7.049021 -25.40386
vt 0.2576212 0.08525062
vn 0.8624212 0.4435947 -0.2438308

v 2.28537 5.00982 -30.09138
vt 0.2572339 0.01431167
vn 0.4471183 0.8193309 -0.3588622

v -2.324562 7.05109 -25.40387
vt 0.1874694 0.08525056
vn -0.6763569 0.6602674 -0.3264786

v -2.299011 5.01197 -30.09138
vt 0.1878563 0.01431167
vn -0.7061766 0.647848 -0.2856703

v 2.351868 7.048294 -8.585987
vt 0.2582402 0.3397653
vn 0.0001655136 1 4.28067E-05

v 2.310944 7.049021 -25.40386
vt 0.2576212 0.08525062
vn 0.0003058737 0.9999999 8.152601E-05

v -2.323921 7.049068 -8.585987
vt 0.1874789 0.3397653
vn 0.0003058737 0.9999999 8.152601E-05

v -2.324562 7.05109 -25.40387
vt 0.1874694 0.08525056
vn 0.0004462337 0.9999999 0.0001202453

v -3.126381 -2.815536 -26.76041
vt 0.942652 0.07363933
vn -0.9829741 0.1009872 -0.1535043

v -2.324562 7.05109 -25.40387
vt 0.79984 0.09327453
vn -0.6763569 0.6602674 -0.3264786

v -2.299011 0.1745966 -30.09138
vt 0.8993722 0.02542621
vn -0.9955206 0.05069939 -0.07980147

v -2.299011 5.01197 -30.09138
vt 0.8293548 0.02542621
vn -0.7061766 0.647848 -0.2856703

v -3.126381 -2.815536 -26.76041
vt 0.5514972 0.06244105
vn 8.202652E-08 -0.7441531 -0.6680091

v -2.299011 0.1745966 -30.09138
vt 0.5640182 0.0120315
vn -1.49414E-08 -0.7441531 -0.668009

v 3.12812 -2.815536 -26.76041
vt 0.6461501 0.06244105
vn -1.49414E-08 -0.7441531 -0.668009

v 2.28537 0.1745966 -30.09138
vt 0.6333963 0.0120315
vn -1.119093E-07 -0.7441531 -0.668009

v -2.173843 -0.2383884 14.31834
vt 0.5659124 0.6841095
vn -0.8340273 -0.4704479 0.2882311

v -10.06297 1.657112 -5.415855
vt 0.4465218 0.3854606
vn -0.7154718 -0.674895 0.1806011

v -1.703636 -2.584646 11.8494
vt 0.5730283 0.6467457
vn -0.7154718 -0.674895 0.1806011

v -3.28022 -2.815536 -5.546765
vt 0.5491689 0.3834794
vn -0.5486661 -0.8338284 0.06079162

v -3.28022 -2.815536 -5.546765
vt 0.5491689 0.3834794
vn -7.556695E-06 -0.9999119 0.01327197

v 3.29998 -2.815536 -5.543018
vt 0.6487509 0.3835362
vn -0.005425135 -0.9999167 0.01171347

v -1.703636 -2.584646 11.8494
vt 0.5730283 0.6467457
vn -0.005425135 -0.9999167 0.01171347

v 1.689865 -2.621444 11.8494
vt 0.6243842 0.6467457
vn -0.01084254 -0.9998897 0.01015459

v -3.28022 -2.815536 -5.546765
vt 0.5491689 0.3834794
vn 0 -1 -1.061986E-08

v -3.126381 -2.815536 -26.76041
vt 0.5514972 0.06244105
vn 0 -1 1.10521E-09

v 3.29998 -2.815536 -5.543018
vt 0.6487509 0.3835362
vn 0 -1 1.10521E-09

v 3.12812 -2.815536 -26.76041
vt 0.6461501 0.06244105
vn 0 -1 1.283028E-08

v 2.16011 -0.2383884 14.31834
vt 0.7911062 0.9350082
vn 1.01134E-07 -0.7195109 0.6944813

v -2.173843 -0.2383884 14.31834
vt 0.7241584 0.9350082
vn -0.003934215 -0.7225747 0.6912817

v 1.689865 -2.621444 11.8494
vt 0.7838421 0.97182
vn -0.003934215 -0.7225747 0.6912817

v -1.703636 -2.584646 11.8494
vt 0.7314217 0.9712515
vn -0.007868394 -0.7256132 0.6880578

v 4.545601 0.5843658 23.72975
vt 0.6676016 0.8265378
vn -4.800655E-09 -0.9962006 0.08708877

v -4.559311 0.5843658 23.72975
vt 0.5298118 0.8265378
vn 2.642359E-09 -0.9962006 0.08708876

v 2.16011 -0.2383884 14.31834
vt 0.6315007 0.6841095
vn 2.642359E-09 -0.9962006 0.08708876

v -2.173843 -0.2383884 14.31834
vt 0.5659124 0.6841095
vn 1.008537E-08 -0.9962006 0.08708876

v 7.717064 -1.032527 -5.543018
vt 0.7155973 0.3835362
vn 0.3682492 -0.9297259 -0.001516012

v 3.12812 -2.815536 -26.76041
vt 0.6461501 0.06244105
vn 0.3682492 -0.9297259 -0.001516012

v 7.717064 -1.032526 -26.76041
vt 0.7155973 0.06244105
vn 0.3621674 -0.9321131 -3.279488E-08

v 7.717064 -1.032527 -5.543018
vt 0.876946 0.9472757
vn 0.04772825 -0.1182382 0.9918376

v 9.83419 1.657112 -5.324261
vt 0.9096496 0.905728
vn 0.04772825 -0.1182382 0.9918376

v 3.29998 -2.815536 -5.543018
vt 0.8087139 0.9748182
vn 0.04772825 -0.1182382 0.9918376

v 3.12812 -2.815536 -26.76041
vt 0.4297872 0.9864791
vn -0.05124529 0.1318889 -0.989939

v 2.310944 7.049021 -25.40386
vt 0.4166424 0.8277998
vn -0.05124529 0.1318889 -0.989939

v 7.717064 -1.032526 -26.76041
vt 0.5036044 0.9577977
vn -0.05124529 0.1318889 -0.989939

v 3.29998 -2.815536 -5.543018
vt 0.6487509 0.3835362
vn 0.3743144 -0.9272969 -0.003031924

v 4.250229 2.936326 21.27886
vt 0.2869694 0.7917272
vn 0.5602194 0.8246698 0.077935

v 9.83419 1.657112 -5.324261
vt 0.3714747 0.3891268
vn 0.5955828 0.8022883 -0.04018151

v 2.351868 7.048294 -8.585987
vt 0.2582402 0.3397653
vn 0.6834744 0.7294468 -0.02775219

v 7.717064 -1.032526 -26.76041
vt 0.3394351 0.06472111
vn 0.7367536 0.6712945 -0.08098093

v 2.310944 7.049021 -25.40386
vt 0.2576212 0.08525062
vn 0.8310181 0.5562418 -0.001998113

v -2.324562 7.05109 -25.40387
vt 0.3420767 0.8277666
vn 0.05117737 0.1319456 -0.989935

v -3.126381 -2.815536 -26.76041
vt 0.3291789 0.9864791
vn 0.05117737 0.1319456 -0.989935

v -7.728859 -1.030378 -26.76041
vt 0.2551444 0.9577632
vn 0.05117737 0.1319456 -0.989935

v -4.263962 2.936326 21.27886
vt 0.1581194 0.7917272
vn 2.349547E-09 0.9906505 0.1364242

v 4.250229 2.936326 21.27886
vt 0.2869694 0.7917272
vn 8.198906E-05 0.9906529 0.1364065

v -2.323921 7.049068 -8.585987
vt 0.1874789 0.3397653
vn 8.198906E-05 0.9906529 0.1364065

v 2.351868 7.048294 -8.585987
vt 0.2582402 0.3397653
vn 0.0001639758 0.9906554 0.1363888

v 2.16011 -0.2383884 14.31834
vt 0.6315005 0.6841095
vn 0.2745219 -0.961472 0.01447024

v 9.83419 1.657112 -5.324261
vt 0.7476369 0.3868468
vn 0.2745219 -0.961472 0.01447024

v 4.545601 0.5843656 23.72975
vt 0.6676016 0.8265378
vn 0.2745219 -0.961472 0.01447024

v 11.72259 1.657112 -15.13442
vt 0.5680361 0.914533
vn -3.850334E-07 -2.673269E-07 -1

v 7.715218 -0.2528374 -15.13442
vt 0.5035744 0.9452558
vn -3.850334E-07 -2.673269E-07 -1

v 4.580994 3.833668 -15.13442
vt 0.4531581 0.8795213
vn -3.850334E-07 -2.673269E-07 -1

v 4.545601 0.5843656 23.72975
vt 0.2914391 0.8288179
vn 0.934459 0.306394 0.1814088

v 9.83419 1.657112 -5.324261
vt 0.3714747 0.3891268
vn 0.5769106 0.8110095 0.0971479

v 4.250229 2.936326 21.27886
vt 0.2869694 0.7917272
vn 0.7102682 0.6943583 0.1156961

v 4.580994 3.833668 -15.13442
vt 0.291975 0.2406641
vn 0.3158797 0.947906 0.04116065

v 11.72259 1.657112 -15.13442
vt 0.4000528 0.240664
vn 0.2910748 0.9550582 0.05603014

v 9.83419 1.657112 -5.324261
vt 0.7476369 0.3868468
vn 0.4287736 -0.8996338 0.08253638

v 7.715218 -0.2528374 -15.13442
vt 0.7155693 0.2383839
vn 0.4287736 -0.8996338 0.08253638

v 11.72259 1.657112 -15.13442
vt 0.7762152 0.2383839
vn 0.4287736 -0.8996338 0.08253638

v -11.73623 1.657112 -15.13442
vt 0.04503704 0.240664
vn -0.2914288 0.9552757 0.05017582

v -10.06297 1.657112 -5.415855
vt 0.07035971 0.3877407
vn -0.2663993 0.9616222 0.0656819

v -4.594643 3.835817 -15.13442
vt 0.1531152 0.2406641
vn -0.2663993 0.9616222 0.0656819

v -4.559303 0.584366 23.72975
vt 0.1536497 0.8288179
vn -0.2411282 0.9670964 0.0811284

v -7.728859 -0.2506887 -15.13442
vt 0.4818451 0.2383839
vn -0.4286748 -0.9004391 0.07380576

v -10.06297 1.657112 -5.415855
vt 0.4465218 0.3854606
vn -0.4286748 -0.9004391 0.07380576

v -11.73623 1.657112 -15.13442
vt 0.4211992 0.2383839
vn -0.4286748 -0.9004391 0.07380576

v -11.73623 1.657112 -15.13442
vt 0.1906825 0.914533
vn 4.185608E-07 7.449626E-08 -1

v -4.594643 3.835817 -15.13442
vt 0.3055608 0.8794867
vn 4.185608E-07 7.449626E-08 -1

v -7.728859 -0.2506887 -15.13442
vt 0.2551442 0.9452214
vn 4.185608E-07 7.449626E-08 -1

v -10.06297 1.657112 -5.415855
vt 0.4465218 0.3854606
vn -0.2703713 -0.9626293 0.01562416

v -2.173836 -0.2383883 14.31834
vt 0.5659126 0.6841095
vn -0.2703713 -0.9626293 0.01562416

v -4.559303 0.584366 23.72975
vt 0.5298119 0.8265378
vn -0.2703713 -0.9626293 0.01562416

v 7.717064 -1.032526 -26.76041
vt 0.9168444 0.07363933
vn 0.7857733 -0.6185146 -2.145114E-08

v 9.83419 1.657112 -5.324261
vt 0.8779138 0.383912
vn 0.7857733 -0.6185146 -2.145114E-08

v 7.717064 -1.032527 -5.543018
vt 0.9168444 0.3807457
vn 0.7857733 -0.6185146 -2.145114E-08

v -10.06297 1.657112 -5.415855
vt 0.8779138 0.3825862
vn -0.7560492 -0.6545147 -0.0002669295

v -7.728859 -1.030378 -26.76041
vt 0.9168133 0.07363933
vn -0.7560492 -0.6545147 -0.0002669295

v -7.734489 -1.032527 -5.543018
vt 0.9168444 0.3807457
vn -0.7560492 -0.6545147 -0.0002669295

# 120 vertice(s).

f 1/1/1 2/2/2 3/3/3
f 4/4/4 5/5/5 6/6/6
f 7/7/7 2/2/2 1/1/1
f 8/8/8 9/9/9 10/10/10
f 9/9/9 11/11/11 10/10/10
f 10/10/10 11/11/11 12/12/12
f 11/11/11 13/13/13 12/12/12
f 14/14/14 15/15/15 16/16/16
f 15/15/15 17/17/17 16/16/16
f 18/18/18 19/19/19 20/20/20
f 20/20/20 19/19/19 21/21/21
f 22/22/22 23/23/23 24/24/24
f 23/23/23 25/25/25 24/24/24
f 26/26/26 27/27/27 28/28/28
f 27/27/27 29/29/29 28/28/28
f 30/30/30 31/31/31 32/32/32
f 31/31/31 33/33/33 32/32/32
f 34/34/34 35/35/35 36/36/36
f 35/35/35 37/37/37 36/36/36
f 38/38/38 39/39/39 40/40/40
f 40/40/40 39/39/39 41/41/41
f 42/42/42 43/43/43 44/44/44
f 43/43/43 45/45/45 44/44/44
f 46/46/46 47/47/47 48/48/48
f 48/48/48 47/47/47 49/49/49
f 50/50/50 51/51/51 52/52/52
f 53/53/53 52/52/52 51/51/51
f 54/54/54 55/55/55 56/56/56
f 55/55/55 57/57/57 56/56/56
f 58/58/58 59/59/59 60/60/60
f 59/59/59 61/61/61 60/60/60
f 62/62/62 63/63/63 64/64/64
f 65/65/65 64/64/64 63/63/63
f 66/66/66 67/67/67 68/68/68
f 69/69/69 70/70/70 71/71/71
f 72/72/72 73/73/73 74/74/74
f 66/66/66 75/75/75 67/67/67
f 76/76/76 77/77/77 78/78/78
f 77/77/77 79/79/79 78/78/78
f 78/78/78 79/79/79 80/80/80
f 81/81/81 82/82/82 83/83/83
f 84/84/84 85/85/85 86/86/86
f 85/85/85 87/87/87 86/86/86
f 88/88/88 89/89/89 90/90/90
f 91/91/91 92/92/92 93/93/93
f 94/94/94 95/95/95 96/96/96
f 96/96/96 95/95/95 97/97/97
f 95/95/95 98/98/98 97/97/97
f 99/99/99 100/100/100 101/101/101
f 102/102/102 103/103/103 104/104/104
f 103/103/103 105/105/105 104/104/104
f 106/106/106 107/107/107 108/108/108
f 109/109/109 110/110/110 111/111/111
f 112/112/112 113/113/113 114/114/114
f 115/115/115 116/116/116 117/117/117
f 118/118/118 119/119/119 120/120/120
# 168 indices; 56 primitives.

# 1 primitive groups.

# 1 parts.

