mtllib LOD1.mtl

g TurretUV
usemtl TurretUV

v 1.08782 -0.3725116 -2.388222
vt 0.328125 0.9761994
vn 0 -1 -4.770492E-10

v 2.493802 -0.3725116 -0.7958442
vt 0.203125 0.7730744
vn 0 -1 -4.770492E-10

v 2.493802 -0.3725116 2.44213
vt 0.203125 0.3980743
vn 0 -1 -4.770492E-10

v 1.08782 -0.3725116 2.450799
vt 0.375 0.3980743
vn 0 -1 -4.770492E-10

v -1.099018 -0.3725116 2.450799
vt 0.375 0.3980743
vn 0 -1 -4.770492E-10

v -2.504998 -0.3725116 2.44213
vt 0.203125 0.3980743
vn 0 -1 -4.770492E-10

v -2.504998 -0.3725116 -0.7958442
vt 0.203125 0.7730744
vn 0 -1 -4.770492E-10

v -1.099018 -0.3725116 -2.388222
vt 0.328125 0.9761994
vn 0 -1 -4.770492E-10

v -0.005599175 -0.3725116 -2.388222
vt 0.5 0.9761994
vn 0 -1 -4.770492E-10

v -1.099018 -0.3725116 2.450799
vt 0.375 0.3980743
vn 1.019604E-08 -0.3453022 0.9384915

v 1.08782 -0.3725116 2.450799
vt 0.375 0.3980743
vn 1.019604E-08 -0.3453022 0.9384915

v 0.7781493 1.447139 3.120309
vt 0.40625 0.2574493
vn 1.019604E-08 -0.3453022 0.9384915

v -0.78935 1.447139 3.120309
vt 0.40625 0.2574493
vn 1.019604E-08 -0.3453022 0.9384915

v 0.7781493 1.447139 3.120309
vt 0.6354167 0.2191265
vn 0.9874411 0.1512537 0.04563363

v 1.08782 -0.3725116 2.450799
vt 0.765625 0.3513744
vn 0.9874411 0.1512537 0.04563363

v 0.8235437 1.900367 0.6358119
vt 0.625 0.55246
vn 0.9874411 0.1512537 0.04563363

v 0.8235437 1.900367 -1.14967
vt 0.625 0.7375721
vn 0.2513648 0.9678924 5.45598E-08

v 0.8235437 1.900367 0.6358119
vt 0.625 0.55246
vn 0.2513648 0.9678924 5.45598E-08

v 2.251248 1.529587 -0.6845761
vt 0.8100551 0.6965807
vn 0.2513648 0.9678924 5.45598E-08

v 2.493802 -0.3725116 -0.7958442
vt 1.001241 0.6976119
vn 0.9919672 0.1264952 -1.05368E-07

v 2.251248 1.529587 -0.6845761
vt 0.8100551 0.6965807
vn 0.9919672 0.1264952 -1.05368E-07

v 2.251248 1.529588 0.6358126
vt 0.8110161 0.5523187
vn 0.9919672 0.1264952 -1.05368E-07

v 2.493802 -0.3725116 -0.7958442
vt 1.001241 0.6976119
vn 0.7853965 0.07042018 -0.6149743

v 1.08782 -0.3725116 -2.388222
vt 0.9453223 0.8883745
vn 0.7853965 0.07042018 -0.6149743

v 1.08782 1.334551 -2.39598
vt 0.8282322 0.8890466
vn 0.7853965 0.07042018 -0.6149743

v 2.251248 1.529587 -0.6845761
vt 0.8100551 0.6965807
vn 0.7853965 0.07042018 -0.6149743

v -2.262443 1.529588 -0.6845761
vt 0.8100551 0.6965807
vn -0.3363866 0.8822999 -0.3292279

v -0.834742 1.900367 -1.14967
vt 0.625 0.7375721
vn -0.3363866 0.8822999 -0.3292279

v -1.099018 1.334551 -2.39598
vt 0.640625 0.8890466
vn -0.3363866 0.8822999 -0.3292279

v -1.099018 1.334551 -2.39598
vt 0.640625 0.8890466
vn 3.873178E-08 0.910556 -0.4133857

v -0.834742 1.900367 -1.14967
vt 0.625 0.7375721
vn 3.873178E-08 0.910556 -0.4133857

v -0.005599125 1.900367 -1.14967
vt 0.53125 0.7375721
vn 3.873178E-08 0.910556 -0.4133857

v -0.005599175 1.334551 -2.39598
vt 0.53125 0.8890466
vn 3.873178E-08 0.910556 -0.4133857

v -1.099018 -0.3725116 -2.388222
vt 0.6406506 0.974335
vn 9.946631E-08 -0.004544544 -0.9999897

v -1.099018 1.334551 -2.39598
vt 0.640625 0.8890466
vn 9.946631E-08 -0.004544544 -0.9999897

v -0.005599175 1.334551 -2.39598
vt 0.53125 0.8890466
vn 9.946631E-08 -0.004544544 -0.9999897

v -0.005599175 -0.3725116 -2.388222
vt 0.53125 0.974335
vn 9.946631E-08 -0.004544544 -0.9999897

v -1.099018 -0.3725116 -2.388222
vt 0.9453223 0.8883745
vn -0.7853971 0.07042032 -0.6149735

v -2.504998 -0.3725116 -0.7958442
vt 1.001241 0.6976119
vn -0.7853971 0.07042032 -0.6149735

v -2.262443 1.529588 -0.6845761
vt 0.8100551 0.6965807
vn -0.7853971 0.07042032 -0.6149735

v -1.099018 1.334551 -2.39598
vt 0.8282322 0.8890466
vn -0.7853971 0.07042032 -0.6149735

v -0.005599125 1.900367 0.6358119
vt 0.53125 0.55246
vn -6.907239E-09 0.9837652 0.1794605

v -0.834742 1.900367 0.6358119
vt 0.625 0.55246
vn -6.907239E-09 0.9837652 0.1794605

v -0.78935 1.447139 3.120309
vt 0.609375 0.2243349
vn -6.907239E-09 0.9837652 0.1794605

v 0.7781493 1.447139 3.120309
vt 0.6354167 0.2191265
vn -6.907239E-09 0.9837652 0.1794605

v 0.8235437 1.900367 0.6358119
vt 0.625 0.55246
vn -6.907239E-09 0.9837652 0.1794605

v -0.834742 1.900367 0.6358119
vt 0.625 0.55246
vn -0.2513631 0.9678929 -1.661448E-06

v -2.262443 1.529588 -0.6845761
vt 0.8100551 0.6965807
vn -0.2513631 0.9678929 -1.661448E-06

v -2.262443 1.529591 0.6358119
vt 0.8110161 0.5523187
vn -0.2513631 0.9678929 -1.661448E-06

v -0.005599125 1.900367 -1.14967
vt 0.53125 0.7375721
vn 0 1 -2.421367E-08

v -0.834742 1.900367 -1.14967
vt 0.625 0.7375721
vn 0 1 -2.421367E-08

v -0.834742 1.900367 0.6358119
vt 0.625 0.55246
vn 0 1 -2.421367E-08

v -0.005599125 1.900367 0.6358119
vt 0.53125 0.55246
vn 0 1 -2.421367E-08

v 1.08782 1.334551 -2.39598
vt 0.640625 0.8890466
vn 0.3363866 0.8822998 -0.3292279

v 0.8235437 1.900367 -1.14967
vt 0.625 0.7375721
vn 0.3363866 0.8822998 -0.3292279

v 2.251248 1.529587 -0.6845761
vt 0.8100551 0.6965807
vn 0.3363866 0.8822998 -0.3292279

v 2.251248 1.529588 0.6358126
vt 0.9686488 0.3000708
vn 0.08848425 0.6587775 0.7471163

v 0.8235437 1.900367 0.6358119
vt 0.7899359 0.3381662
vn 0.08848425 0.6587775 0.7471163

v 1.08782 -0.3725116 2.450799
vt 0.8052198 0.123626
vn 0.08848425 0.6587775 0.7471163

v 2.493802 -0.3725116 2.44213
vt 0.9861762 0.1241958
vn 0.08848425 0.6587775 0.7471163

v -0.834742 1.900367 0.6358119
vt 0.7899359 0.3381662
vn -0.08848404 0.6587773 0.7471165

v -2.262443 1.529591 0.6358119
vt 0.9686488 0.3000708
vn -0.08848404 0.6587773 0.7471165

v -2.504998 -0.3725116 2.44213
vt 0.9861762 0.1241958
vn -0.08848404 0.6587773 0.7471165

v -1.099018 -0.3725116 2.450799
vt 0.8052198 0.123626
vn -0.08848404 0.6587773 0.7471165

v -1.099018 -0.3725116 2.450799
vt 0.765625 0.3513744
vn -0.9874412 0.1512529 0.04563248

v -0.78935 1.447139 3.120309
vt 0.6875 0.2087099
vn -0.9874412 0.1512529 0.04563248

v -0.834742 1.900367 0.6358119
vt 0.625 0.55246
vn -0.9874412 0.1512529 0.04563248

v 0.8235437 1.900367 -1.14967
vt 0.625 0.7375721
vn 0 1 2.044507E-08

v 0.8235437 1.900367 0.6358119
vt 0.625 0.55246
vn 0 1 2.044507E-08

v 0.8235437 1.900367 -1.14967
vt 0.625 0.7375721
vn 3.873179E-08 0.9105561 -0.4133856

v 1.08782 1.334551 -2.39598
vt 0.640625 0.8890466
vn 3.873179E-08 0.9105561 -0.4133856

v 1.08782 1.334551 -2.39598
vt 0.640625 0.8890466
vn 9.946632E-08 -0.004544544 -0.9999897

v 1.08782 -0.3725116 -2.388222
vt 0.6406506 0.974335
vn 9.946632E-08 -0.004544544 -0.9999897

v 2.251248 1.529588 0.6358126
vt 0.8110161 0.5523187
vn 0.2513641 0.9678926 -8.602403E-07

v -0.834742 1.900367 -1.14967
vt 0.625 0.7375721
vn -0.2513646 0.9678925 6.378117E-08

v 2.493802 -0.3725116 2.44213
vt 0.9931492 0.3668977
vn 0.9919673 0.1264951 2.327726E-10

v -2.504998 -0.3725116 -0.7958442
vt 1.001241 0.6976119
vn -0.9919672 0.1264955 -2.269286E-07

v -2.262443 1.529591 0.6358119
vt 0.8110161 0.5523187
vn -0.9919672 0.1264955 -2.269286E-07

v -2.262443 1.529588 -0.6845761
vt 0.8100551 0.6965807
vn -0.9919672 0.1264955 -2.269286E-07

v -2.504998 -0.3725116 2.44213
vt 0.9931492 0.3668977
vn -0.9919672 0.1264952 6.037362E-10

# 80 vertice(s).

f 1/1/1 2/2/2 3/3/3
f 1/1/1 3/3/3 4/4/4
f 1/1/1 4/4/4 5/5/5
f 1/1/1 5/5/5 6/6/6
f 1/1/1 6/6/6 7/7/7
f 1/1/1 7/7/7 8/8/8
f 1/1/1 8/8/8 9/9/9
f 10/10/10 11/11/11 12/12/12
f 10/10/10 12/12/12 13/13/13
f 14/14/14 15/15/15 16/16/16
f 17/17/17 18/18/18 19/19/19
f 20/20/20 21/21/21 22/22/22
f 23/23/23 24/24/24 25/25/25
f 23/23/23 25/25/25 26/26/26
f 27/27/27 28/28/28 29/29/29
f 30/30/30 31/31/31 32/32/32
f 30/30/30 32/32/32 33/33/33
f 34/34/34 35/35/35 36/36/36
f 34/34/34 36/36/36 37/37/37
f 38/38/38 39/39/39 40/40/40
f 38/38/38 40/40/40 41/41/41
f 42/42/42 43/43/43 44/44/44
f 42/42/42 44/44/44 45/45/45
f 42/42/42 45/45/45 46/46/46
f 47/47/47 48/48/48 49/49/49
f 50/50/50 51/51/51 52/52/52
f 50/50/50 52/52/52 53/53/53
f 54/54/54 55/55/55 56/56/56
f 57/57/57 58/58/58 59/59/59
f 57/57/57 59/59/59 60/60/60
f 61/61/61 62/62/62 63/63/63
f 61/61/61 63/63/63 64/64/64
f 65/65/65 66/66/66 67/67/67
f 68/68/68 50/50/50 53/53/53
f 68/68/68 53/53/53 69/69/69
f 33/33/33 32/32/32 70/70/70
f 33/33/33 70/70/70 71/71/71
f 37/37/37 36/36/36 72/72/72
f 37/37/37 72/72/72 73/73/73
f 19/19/19 18/18/18 74/74/74
f 75/75/75 48/48/48 47/47/47
f 20/20/20 22/22/22 76/76/76
f 77/77/77 78/78/78 79/79/79
f 77/77/77 80/80/80 78/78/78
# 132 indices; 44 primitives.

# 1 primitive groups.

# 1 parts.

