mtllib LOD2-UVFlip.mtl

g Hgn_MinelayerCorv_LOD2
usemtl Hgn_MinelayerCorv_LOD2

v 2.493801 -0.3725114 -2.39598
vt 0.3902064 0.2860372
vn 0 -1 4.200607E-10

v 2.493801 -0.3725114 2.44213
vt 0.3902064 0.2414483
vn 0 -1 4.200607E-10

v -2.504997 -0.3725114 2.44213
vt 0.4362763 0.2414483
vn 0 -1 4.200607E-10

v -2.504997 -0.3725114 -2.39598
vt 0.4362763 0.2860372
vn 0 -1 4.200607E-10

v 2.493801 -0.3725114 -2.39598
vt 0.3925892 0.450609
vn 0.994354 0.106114 -6.971458E-10

v 2.251247 1.900367 -2.39598
vt 0.4287369 0.450609
vn 0.994354 0.106114 -6.971458E-10

v 2.251247 1.900367 0.6358126
vt 0.4287369 0.4023916
vn 0.994354 0.106114 -6.971458E-10

v 2.493801 -0.3725114 -2.39598
vt 0.3813202 0.4489852
vn -3.629538E-09 0 -1

v -2.504997 -0.3725114 -2.39598
vt 0.432367 0.4489852
vn -3.629538E-09 0 -1

v -2.262444 1.900367 -2.39598
vt 0.42989 0.425775
vn -3.629538E-09 0 -1

v 2.251247 1.900367 -2.39598
vt 0.3837972 0.425775
vn -3.629538E-09 0 -1

v -2.262444 1.900367 -2.39598
vt 0.4340408 0.2860372
vn 0 1 1.153636E-08

v -2.262444 1.900367 0.6358119
vt 0.4340408 0.2580957
vn 0 1 1.153636E-08

v 2.251247 1.900367 0.6358126
vt 0.3924419 0.2580957
vn 0 1 1.153636E-08

v 2.251247 1.900367 -2.39598
vt 0.3924419 0.2860372
vn 0 1 1.153636E-08

v -2.262444 1.900367 0.6358119
vt 0.4442032 0.3484659
vn -5.170689E-08 0.6221746 0.7828785

v -2.504997 -0.3725114 2.44213
vt 0.4477501 0.3817023
vn -5.170689E-08 0.6221746 0.7828785

v 2.493801 -0.3725114 2.44213
vt 0.3746524 0.3817023
vn -5.170689E-08 0.6221746 0.7828785

v 2.251247 1.900367 0.6358126
vt 0.3781992 0.3484659
vn -5.170689E-08 0.6221746 0.7828785

v 2.493801 -0.3725114 2.44213
vt 0.3925892 0.3736641
vn 0.994354 0.106114 -4.368652E-10

v -2.504997 -0.3725114 -2.39598
vt 0.3925892 0.450609
vn -0.994354 0.1061141 6.971461E-10

v -2.262444 1.900367 0.6358119
vt 0.4287369 0.4023916
vn -0.994354 0.1061141 6.971461E-10

v -2.262444 1.900367 -2.39598
vt 0.4287369 0.450609
vn -0.994354 0.1061141 6.971461E-10

v -2.504997 -0.3725114 2.44213
vt 0.3925892 0.3736641
vn -0.994354 0.106114 4.368652E-10

# 24 vertice(s).

f 1/1/1 2/2/2 3/3/3
f 1/1/1 3/3/3 4/4/4
f 5/5/5 6/6/6 7/7/7
f 8/8/8 9/9/9 10/10/10
f 8/8/8 10/10/10 11/11/11
f 12/12/12 13/13/13 14/14/14
f 12/12/12 14/14/14 15/15/15
f 16/16/16 17/17/17 18/18/18
f 16/16/16 18/18/18 19/19/19
f 5/5/5 7/7/7 20/20/20
f 21/21/21 22/22/22 23/23/23
f 21/21/21 24/24/24 22/22/22
# 36 indices; 12 primitives.

# 1 primitive groups.

# 1 parts.

